<?xml version="1.0" encoding="UTF-8"?>
<!DOCTYPE svg PUBLIC "-//W3C//DTD SVG 1.1//EN" "http://www.w3.org/Graphics/SVG/1.1/DTD/svg11.dtd">
<!-- Creator: CorelDRAW X6 -->
<svg xmlns="http://www.w3.org/2000/svg" xml:space="preserve" width="61.829mm" height="87.296mm" version="1.1" style="shape-rendering:geometricPrecision; text-rendering:geometricPrecision; image-rendering:optimizeQuality; fill-rule:evenodd; clip-rule:evenodd"
viewBox="0 0 1542 2177"
 xmlns:xlink="http://www.w3.org/1999/xlink">
 <defs>
  <style type="text/css">
   <![CDATA[
    .fil8 {fill:#9D9E9E;fill-rule:nonzero}
    .fil7 {fill:#0D679A;fill-rule:nonzero}
    .fil2 {fill:#00A1B3;fill-opacity:0.619608}
    .fil3 {fill:#0295C2;fill-opacity:0.619608}
    .fil6 {fill:#035287;fill-opacity:0.619608}
    .fil5 {fill:#047EB3;fill-opacity:0.619608}
    .fil4 {fill:#0787BA;fill-opacity:0.619608}
    .fil1 {fill:#41ABA7;fill-opacity:0.619608}
    .fil0 {fill:#57C2A2;fill-opacity:0.619608}
   ]]>
  </style>
 </defs>
 <g id="Слой_x0020_1">
  <metadata id="CorelCorpID_0Corel-Layer"/>
  <g id="_1441476336">
   <path class="fil0" d="M577 902c0,2 0,5 0,7 0,115 -30,224 -84,320 -97,179 -271,310 -478,352 483,-51 856,-467 856,-977 0,-219 -70,-432 -198,-605l-247 468c94,119 151,268 151,431 0,1 0,2 0,3z"/>
   <path class="fil1" d="M577 885c4,107 -16,273 -134,423 -102,139 -254,239 -429,274 590,-58 1046,-564 1046,-1185 0,-94 -11,-187 -31,-277 -1,-3 -1,-5 -2,-8l-460 671c6,33 9,68 10,103z"/>
   <path class="fil2" d="M553 1087c-19,72 -53,148 -110,220 -102,139 -255,240 -431,274 720,-62 1191,-525 1281,-1149l-740 654z"/>
   <path class="fil3" d="M445 1305l-1 1c-103,142 -258,243 -438,277 724,-42 1246,-427 1405,-830l-966 553z"/>
   <path class="fil4" d="M4 1584c727,-27 1332,-307 1491,-562l-1166 408c-91,77 -203,131 -326,154z"/>
   <path class="fil5" d="M2 1584c728,-14 1344,-106 1540,-342l-1316 260c-68,39 -144,67 -224,82z"/>
   <path class="fil6" d="M0 1584c787,-2 1128,17 1500,-125l-1339 76c-51,22 -105,39 -161,49z"/>
   <g>
    <path class="fil7" d="M36 1679l114 0 0 223 35 0 0 -250 -185 0 0 250 35 0 0 -223zm281 225c57,0 75,-39 75,-95 0,-55 -19,-90 -75,-90 -18,0 -34,4 -50,12l0 -13 -35 10 0 241 35 -10 0 -64c19,6 36,9 50,9zm-50 -148c15,-7 30,-11 47,-11 35,0 43,27 43,64 0,37 -8,70 -43,70 -14,0 -27,-1 -47,-8l0 -115zm239 148c60,0 83,-35 83,-91 0,-59 -23,-94 -83,-94 -60,0 -84,35 -84,94 0,55 24,91 84,91zm0 -160c30,0 47,19 47,69 0,48 -16,65 -47,65 -33,0 -48,-17 -48,-65 0,-50 14,-69 48,-69zm190 -25c-56,0 -78,37 -78,92 0,56 22,94 77,94 22,0 43,-4 62,-11l0 -23c-19,5 -35,8 -52,8 -42,0 -51,-23 -51,-67 0,-40 9,-65 51,-65 13,0 33,3 50,8l0 -23c-18,-7 -40,-11 -59,-11zm97 2l0 181 33 0 0 -155 81 0 0 155 34 0 0 -181 -148 0zm274 157c-37,0 -49,-17 -50,-51l127 0c0,-7 1,-14 1,-20 0,-63 -25,-88 -80,-88 -57,0 -83,27 -83,94 0,63 23,91 81,91 25,0 50,-4 74,-13l0 -23c-25,7 -44,10 -71,10zm-50 -76c2,-40 10,-58 48,-58 37,0 45,18 46,58l-94 0zm203 100l0 -80 80 80 43 0 -92 -93 92 -88 -43 0 -79 76 0 -76 -34 0 0 181 34 0zm133 -181l0 26 55 0 0 155 34 0 0 -155 48 0 10 -26 -147 0z"/>
    <path class="fil8" d="M0 2039l0 101 23 0 43 -80 0 80 19 0 0 -101 -24 0 -43 79 0 -79 -19 0zm125 0l0 27c0,21 -4,42 -16,59l-8 0 0 45 18 0 0 -31 63 0 0 31 19 0 0 -45 -10 0 0 -86 -67 0zm17 15l30 0 0 71 -43 0c9,-17 13,-36 13,-54l0 -17zm124 73c-21,0 -27,-9 -28,-29l71 0c0,-4 0,-8 0,-11 0,-35 -14,-49 -44,-49 -32,0 -46,15 -46,52 0,35 13,51 45,51 14,0 28,-2 41,-7l0 -13c-14,4 -24,6 -39,6zm-28 -42c1,-22 6,-32 27,-32 20,0 25,10 25,32l-52 0zm93 -45l0 101 23 0 43 -80 0 80 19 0 0 -101 -24 0 -43 79 0 -79 -19 0zm179 0l0 27c0,21 -4,42 -16,59l-8 0 0 45 18 0 0 -31 63 0 0 31 19 0 0 -45 -10 0 0 -86 -67 0zm17 15l30 0 0 71 -43 0c9,-17 13,-36 13,-54l0 -17zm91 -15l0 78c0,10 0,13 -8,13 -5,0 -9,0 -14,-1l0 9c7,2 11,2 18,2 15,0 21,-7 21,-21l0 -66 35 0 0 86 18 0 0 -101 -70 0zm106 101l19 -35 21 0 0 35 17 0 0 -100 -39 0c-23,0 -34,9 -34,32 0,12 3,20 8,26 2,2 5,4 9,6l-21 37 19 0zm20 -49c-12,0 -17,-7 -17,-20 0,-13 5,-17 17,-17l20 0 0 37 -20 0zm113 0c0,31 13,51 47,51 33,0 46,-20 46,-51 0,-33 -13,-52 -46,-52 -8,0 -16,2 -21,5 -2,1 -5,3 -7,5 0,0 0,-1 0,-1 1,-5 3,-9 6,-13 13,-22 39,-24 59,-25l0 -16c-28,2 -57,9 -72,35 -10,18 -10,40 -11,62l0 0zm47 -38c17,0 26,11 26,38 0,27 -9,36 -26,36 -18,0 -26,-10 -26,-36 0,-28 8,-38 26,-38zm113 89c32,0 42,-22 42,-53 0,-31 -10,-50 -42,-50 -10,0 -19,2 -28,7l0 -7 -19 6 0 134 19 -6 0 -36c11,3 20,5 28,5zm-28 -82c8,-4 17,-6 26,-6 20,0 24,15 24,36 0,21 -4,39 -24,39 -8,0 -15,-1 -26,-4l0 -64zm133 68c-21,0 -27,-9 -28,-29l71 0c0,-4 0,-8 0,-11 0,-35 -14,-49 -44,-49 -32,0 -46,15 -46,52 0,35 13,51 45,51 14,0 28,-2 41,-7l0 -13c-14,4 -24,6 -39,6zm-28 -42c1,-22 6,-32 27,-32 20,0 25,10 25,32l-52 0zm93 -45l0 101 19 0 0 -45 46 0 0 45 19 0 0 -101 -19 0 0 41 -46 0 0 -41 -19 0zm123 0l0 27c0,21 -4,42 -16,59l-8 0 0 45 18 0 0 -31 63 0 0 31 19 0 0 -45 -10 0 0 -86 -67 0zm17 15l30 0 0 71 -43 0c9,-17 13,-36 13,-54l0 -17zm145 86l18 0 0 -71c0,-21 -18,-31 -42,-31 -11,0 -24,1 -35,4l0 13c8,-2 19,-3 26,-3 21,0 32,2 32,20l0 3c-22,0 -35,2 -44,5 -19,6 -23,17 -23,31 0,20 12,30 31,30 11,0 23,-2 37,-10l0 8zm-29 -12c-12,0 -19,-6 -19,-18 0,-11 4,-15 13,-17 7,-2 17,-4 34,-4l0 30c-8,5 -19,9 -28,9z"/>
   </g>
  </g>
 </g>
</svg>
