<?xml version="1.0" encoding="utf-8"?>
<!-- Generator: Adobe Illustrator 17.1.0, SVG Export Plug-In . SVG Version: 6.00 Build 0)  -->
<!DOCTYPE svg PUBLIC "-//W3C//DTD SVG 1.1//EN" "http://www.w3.org/Graphics/SVG/1.1/DTD/svg11.dtd">
<svg version="1.1" id="Layer_1" xmlns="http://www.w3.org/2000/svg" xmlns:xlink="http://www.w3.org/1999/xlink" x="0px" y="0px"
	 viewBox="10 0 500 97.5" enable-background="new 10 0 500 97.5" xml:space="preserve">
<g>
	<path fill="#EF4135" d="M503.7,6.8c0,0.7-0.6,1.3-1.6,1.3h-2V5.4h1.9C503.1,5.4,503.7,5.9,503.7,6.8L503.7,6.8z M505.8,6.7
		c0-1.8-1.4-2.9-3.6-2.9h-4v9.1h2v-3h1.6l1.9,2.9h2.3l-2.2-3.2C504.9,9.1,505.8,8.2,505.8,6.7L505.8,6.7z M510.2,8.4
		c0-4.7-3.7-8.4-8.4-8.4c-4.8,0-8.5,3.9-8.5,8.5s3.7,8.4,8.4,8.4C506.5,17,510.2,13,510.2,8.4L510.2,8.4z M28,96.3H10l34.2-47.6
		L11.3,2.6h19.4L54,36.2L77.4,2.6c0,0,18.3,0,18,0L28,96.3L28,96.3z M500,49.2c0,26.4-20.3,48.5-49,48.5
		c-28.7,0-48.7-21.8-48.7-48.2S422.5,1,451.2,1C480,1,500,22.8,500,49.2L500,49.2z M482.7,49.4c0-18.3-13.2-33.4-31.8-33.4
		s-31.5,14.8-31.5,33.1c0,18.3,13.2,33.4,31.8,33.4S482.7,67.8,482.7,49.4L482.7,49.4z M373.9,58.9l-16.2-37.4l-16.1,37.4H373.9
		L373.9,58.9z M365.7,1.9L406.8,96h-17.4L380,73.4h-44.2L326.2,96h-16.8l41.1-94.1L365.7,1.9L365.7,1.9z M314.5,49.2
		c0,26.4-20.3,46.8-49.7,46.8h-9.5v-15h9.5c19.6,0,32.4-13.2,32.4-31.7s-12.9-31.9-32.4-31.9h-18.5v16.8V81v15H230V2.6h34.9
		C294.2,2.6,314.5,22.8,314.5,49.2L314.5,49.2z M104.6,2.6H121V96h-16.4V2.6L104.6,2.6z M200.6,67.2V2.6h16.2V96H203l-51.5-66.5V96
		h-16.2V2.6h15.2L200.6,67.2L200.6,67.2z M97.4,96H78L58.6,68l9.5-13.2L97.4,96L97.4,96z"/>
</g>
</svg>
