<?xml version="1.0" encoding="utf-8"?>
<!-- Generator: Adobe Illustrator 19.0.0, SVG Export Plug-In . SVG Version: 6.00 Build 0)  -->
<svg version="1.1" id="Layer_1" xmlns="http://www.w3.org/2000/svg" xmlns:xlink="http://www.w3.org/1999/xlink" x="0px" y="0px"
	 width="151.5px" height="32.4px" viewBox="0 0 151.5 32.4" style="enable-background:new 0 0 151.5 32.4;" xml:space="preserve">
<style type="text/css">
	.st0{fill:#F6F7F9;}
</style>
<path class="st0" d="M146.7,7.5c0-0.3,0.3-0.5,0.6-0.5c0.3,0,0.5,0.2,0.5,0.5c0,0.3-0.2,0.6-0.5,0.6C146.9,8,146.7,7.8,146.7,7.5z
	 M146.7,9c0-0.3,0.3-0.6,0.6-0.6c0.3,0,0.5,0.2,0.5,0.6c0,0.3-0.2,0.5-0.5,0.5C146.9,9.5,146.7,9.3,146.7,9z M148.3,9.4
	c0.3-0.3,0.4-0.7,0.4-1.2c0-0.4-0.1-0.8-0.4-1.2l0.5-0.4c0.4,0.4,0.7,1,0.7,1.6c-0.1,0.7-0.3,1.2-0.7,1.6L148.3,9.4z M145,8.2
	c0,1.5,1.4,2.9,2.9,2.9c1.6,0,2.9-1.4,2.9-2.9c0-1.5-1.2-2.9-2.9-2.9C146.3,5.3,145,6.7,145,8.2z M144.4,8.2c0-1.9,1.6-3.6,3.6-3.6
	s3.6,1.7,3.6,3.6c0,1.9-1.5,3.6-3.6,3.6C146,11.7,144.4,10.1,144.4,8.2z M12,23.8v-0.6c0-0.1,0-0.1,0-0.3c0-0.7,0-1.2,0-1.9v-6.2
	c-0.1-0.3-0.3-0.4-0.7-0.4c-2.2,0-4.4,0-6.6,0c-0.4,0-0.5,0.1-0.5,0.5c0,2.6,0,5.2,0,7.8c0,0.1,0,0.1,0,0.3v0.4H3.7H3.6H3.4H0V3h4.4
	v0.4c0,0.1,0,0.1,0,0.1c0,1.1,0,2,0,3v3.8c0,0.1,0.3,0.3,0.5,0.3c2.2,0,4.2,0,6.4,0c0.4,0,0.7-0.1,0.7-0.4V5.6c0-0.7,0-1.4,0-2V3.4
	V3h4.4v20.5h-0.5h-0.1c-0.1,0-0.3,0-0.4,0v0.3H12z M100.4,23.8V8.4h4.3v15.3H100.4z M120.7,23.9c-1.1,0-2.1-0.1-3-0.7
	c-1.8-1.1-2.7-2.6-2.7-4.7c0-0.5,0-1,0-1.5v-5.6c0-0.1,0-0.3-0.1-0.3h-2.9c-0.1,0.1-0.1,0.1-0.1,0.1v12.3h-4.3V11.4
	c0-0.1-0.1-0.1-0.1-0.1h-2.1v-0.5c0-0.1,0-0.1,0-0.1c0-0.6,0-1.2,0-1.8V8.7V8.3h2.1c0.1,0,0.3-0.3,0.3-0.5c0-1.5,0.7-2.9,2.1-3.7
	c1-0.5,1.9-0.8,3-1c1.5-0.3,1.4-0.3,1.4,1.2c0,0.4,0,0.8,0,1.2c0,0.4-0.1,0.7-0.7,0.7c-1,0-1.5,0.5-1.8,1.4c-0.1,0.4,0,0.7,0.3,0.7
	h2.9l0.1-0.1V0h4c0,1.2,0,6,0,7.2c0,0.1,0,0.3,0,0.4c0,0.1,0,0.1,0,0.1v0.1c0,0.3,0.1,0.4,0.3,0.4h7.8v0.6c0,0.1,0,0.1,0,0.1
	c0,0.5,0,1.2,0,1.8c0,0.1,0,0.1,0,0.1v0.5h-7.8c-0.1,0-0.1,0.1-0.1,0.4c0,2,0,4.2,0,6.3c0,1.4,1,2.3,2.2,2.3c1.1,0,2-1,2.2-2.3
	c0,0,0-0.1,0-0.3v-1.4h3.8V18c0,1.6-0.4,3.1-1.8,4.4c-1.2,1.2-2.5,1.5-4,1.5C121.2,23.9,120.9,23.9,120.7,23.9z M26.3,16.4
	c-0.4,0.3-0.8,0.4-1.2,0.5c-0.5,0.1-1.2,0.3-1.9,0.4c-0.7,0.1-1.5,0.5-1.6,1.4c-0.3,1.4,0.4,2.2,1.8,2.3c0.4-0.1,0.7-0.1,1.1-0.3
	c1.8-0.7,2.7-2.2,2.5-4.1c0-0.3-0.1-0.4-0.3-0.4C26.5,16.3,26.4,16.3,26.3,16.4z M18.9,23c-1-0.7-1.5-1.7-1.4-3c0-0.7,0-1.4,0.1-2.1
	c0.4-1.5,1.2-2.3,2.6-2.9c1.2-0.5,2.6-0.7,4-0.8c0.6,0,1.2-0.1,1.8-0.4c0.6-0.1,1-0.5,1-1.2c-0.1-0.6-0.5-1.1-1.2-1.2
	c-0.8-0.1-1.6-0.1-2.5,0c-0.8,0.1-1.2,0.7-1.4,1.4c-0.1,0.5-0.6,0.7-1.1,0.7c-0.7,0-1.5,0-2.2,0c-0.7,0-0.8,0-0.7-0.7
	c0.3-2.2,1.4-3.8,4.2-4.4C23.8,8,25.3,8,27,8.3c2.5,0.4,3.8,2.2,4,4.7c0,0.1,0,0.4,0,0.6v0.3c0,2.7,0,5.5,0,8.2c0,0.1,0,0.1,0,0.3
	c0,0.4,0,0.7,0,0.8v0.3h-3.8v-0.3C27,23,27,22.8,27,22.7c0-0.1-0.1-0.3-0.1-0.3c-0.8,0.4-1.5,0.8-2.2,1.1C23.8,23.8,23,24,22.2,24
	C21,24,19.9,23.7,18.9,23z M132.4,23.6c-1.9-0.6-3.3-1.9-3.8-3.8c-0.3-0.8,0-1,0.8-1c0.4,0,0.8,0,1.2,0c0.4-0.1,1-0.1,1.4-0.1
	c0.3-0.1,0.5,0,0.7,0.4c0.4,1.2,1.4,1.8,2.6,1.8c0.7,0,1.6,0.1,2.3-0.4c0.8-0.5,1-1.5,0-2.1c-0.4-0.4-1.1-0.5-1.6-0.7
	c-1.5-0.4-3-0.8-4.4-1.4c-2.1-1-2.7-2.3-2.6-4.4c0.1-1.9,1.4-2.9,3.2-3.4c2.3-0.7,4.7-0.8,7,0.1c1.2,0.5,2.2,1.5,2.5,3v0.1
	c0.3,1.4,0.3,1.4-1.1,1.4c-0.7,0-1.4,0-2.1,0c-0.4,0-0.7-0.1-0.8-0.5c-0.3-1-1.1-1.5-2.2-1.5c-0.7,0-1.2,0.1-1.9,0.3
	c-0.6,0.1-1,0.4-1,1c-0.1,0.4,0.3,0.8,0.7,1c0.8,0.3,1.6,0.5,2.5,0.8c1.4,0.5,2.9,1,4.4,1.5c1.2,0.6,1.8,1.6,2.5,3
	c0,2.9-1.8,4.8-4.7,5.2c-0.8,0.1-1.6,0.2-2.3,0.2C134.5,24.1,133.5,24,132.4,23.6z M83.3,21.9c-1.1-1.1-1.9-2.5-2.5-4
	c-0.7-1.5-1-3.3-0.8-4.9c0.1-3.6,1.4-6.7,4.5-8.9c1.8-1.2,3.7-1.4,5.7-1.4c1.7,0,3.2,0.3,4.5,1c2.2,1.1,3.6,2.9,4.1,5.2
	c0.1,0.5,0,0.8-0.6,0.8c-1.1,0-2,0-3.1,0c-0.4,0-0.7,0-0.8-0.7c-0.4-1.6-1.8-2.5-3.3-2.9c-1.8-0.6-4.7,0.5-5.6,2.6
	c-0.9,2.1-1.4,4.2-0.8,6.6c0.3,1.2,0.7,2.5,1.5,3.4c1.1,1.5,2.7,2.1,4.5,1.8c1.9-0.3,3.3-1.5,4-3.4c0.1-0.3,0.3-0.5,0.1-0.7
	c0,0-0.1-0.1-0.3-0.3h-4.3v-0.5c0,0,0-0.1,0-0.3c0-0.7,0-1.5,0-2.2V13h0.1v-0.3H99v3.7c0,2.2,0,7.4,0,7.4h-3.7c0,0,0-1.4,0-1.6
	c0,0-0.1-0.1-0.3-0.1c-0.3,0.3-0.4,0.5-0.7,0.8c-1.2,1-2.6,1.4-4.1,1.5c-0.3,0-0.7,0.1-1,0.1C86.9,24.4,84.9,23.5,83.3,21.9z
	 M66.3,29.9c-2.3-1-3.3-3.2-3.4-5.3c0-0.3,0.3-0.6,0.4-0.6c1,0,1.9,0,2.9,0c0.3,0,0.6,0.4,0.6,0.6c0.1,1.4,1.4,2.5,3,2.5
	c1.4,0,2.6-1.2,2.7-2.5c0-0.8,0.1-1.8,0.1-2.6c0-0.1-0.1-0.1-0.1-0.1C72.3,22,72.2,22,72,22.1c-0.7,1-1.6,1.2-2.7,1.4
	C65.9,24,63,21.4,63,18.2c0-1.5,0-2.9,0-4.4v-2.3c0-0.8,0-1.6,0-2.5c0-0.1,0-0.1,0-0.3V8.3h0.4c0.1,0,0.3,0,0.4,0c1,0,1.8,0,2.6,0
	c0.1,0,0.3,0,0.4,0h0.3v0.3c0,0.1,0,0.3,0,0.4c0,2.6,0,5.3,0,7.9c0,0.5,0,1,0.1,1.5c0.1,1,1.1,1.6,2.1,1.8c1.1,0.1,2.1-0.3,2.7-1.2
	c0.3-0.6,0.6-1.2,0.6-1.8c0-1.1,0-2.3,0-3.4V8.3H73c0.1,0,0.3,0,0.5,0c0.7,0,1.5,0,2.2,0c0.3,0,0.4,0,0.5,0h0.3v0.3
	c0,0.1,0,0.3,0,0.6c0,3.4,0,6.8,0,10.1c0,1.8,0,3.6,0,5.3c-0.1,3-3.1,5.6-5.8,5.8c-0.5,0-1,0.1-1.5,0.1
	C68.3,30.4,67.3,30.3,66.3,29.9z M52.2,12.7c-0.6,1-0.6,2-0.6,3.4c0,0.4,0,1.1,0.1,1.8c0.1,1.2,1.1,2.3,2.1,2.5
	c1.8,0.1,2.9-0.4,3.3-1.9c0.6-1.8,0.4-3.6-0.1-5.3c-0.4-1.2-1.4-1.9-2.5-1.9C53.4,11.2,52.7,11.9,52.2,12.7z M47.4,32.3v-24h0.4
	c0.1,0,0.3,0,0.4,0c0.8,0,1.6,0,2.5,0c0.1,0,0.3,0,0.4,0h0.4v1.4c0.3-0.1,0.4-0.1,0.5-0.3c1.1-1.5,2.7-1.5,4.4-1.4
	c2.7,0.4,4.3,2.7,4.8,4.8c0.4,1.9,0.5,3.8-0.3,5.9c-0.4,1.5-1,3-2.3,4.1c-2.1,1.6-5.5,1.2-6.8-0.7c0-0.1-0.1-0.3-0.4-0.4
	c0,0.1,0,0.3,0,0.3v10.3H47.4z M37.9,12.4c-0.7,1-0.9,2.2-0.8,3.4c0,0.1,0,0.1,0,0.3c0,1.1,0.1,2.2,0.7,3.2c0.7,1.2,1.9,1.2,3,1.1
	c1-0.3,1.7-1,1.8-1.9c0.1-1.1,0.3-2.3,0.3-3.4c0-1.1-0.3-2.2-1.1-3c-0.5-0.5-1.2-0.7-1.8-0.7C39.2,11.3,38.4,11.6,37.9,12.4z
	 M33,32.4V32c0,0,0-0.1,0-0.3c0-7.5,0-15.1,0-22.6c0-0.1,0-0.3,0-0.4V8.3h0.4c0.1,0,0.3,0,0.4,0c0.8,0,1.5,0,2.3,0
	c0.3,0,0.4,0,0.5,0H37v1.4h0.1c0.1-0.1,0.3-0.3,0.4-0.4c0.5-1,1.5-1.2,2.6-1.4c3.8-0.4,6,2.3,6.6,5.2c0.4,1.9,0.4,4,0,5.9
	c-0.6,3.1-3.2,5.3-6.4,4.8c-1-0.1-1.8-0.6-2.6-1.4c-0.1-0.1-0.3-0.3-0.4-0.5c0,0.1-0.1,0.1-0.1,0.1C37,22,37,22.1,37,22.1v5.3
	c0,1.1,0,2.2,0,3.3c0,0.3,0,0.7,0,1.1c0,0.1,0,0.1,0,0.3v0.3H33z"/>
</svg>
