<?xml version="1.0" encoding="utf-8"?>
<!-- Generator: Adobe Illustrator 17.0.1, SVG Export Plug-In . SVG Version: 6.00 Build 0)  -->
<!DOCTYPE svg PUBLIC "-//W3C//DTD SVG 1.1//EN" "http://www.w3.org/Graphics/SVG/1.1/DTD/svg11.dtd">
<svg version="1.1" id="Слой_1" xmlns="http://www.w3.org/2000/svg" xmlns:xlink="http://www.w3.org/1999/xlink" x="0px" y="0px"
	 width="150px" height="53.13px" viewBox="0 0 150 53.13" enable-background="new 0 0 150 53.13" xml:space="preserve">
<path fill="#1E1E1E" d="M49.461,13.161c-1.088,3.13-2.838,6.821-5.554,10.35c0.178,0.997,0.313,2.009,0.313,3.054
	c0,9.735-7.921,17.652-17.653,17.652c-9.732,0-17.654-7.917-17.654-17.652c0-9.732,7.921-17.652,17.654-17.652
	c1.066,0,2.098,0.133,3.117,0.316c2.811-2.216,6.267-4.109,10.454-5.458C36.16,1.393,31.529,0,26.567,0C11.917,0,0,11.917,0,26.565
	c0,14.649,11.917,26.566,26.567,26.566c14.65,0,26.568-11.917,26.568-26.566C53.135,21.673,51.781,17.1,49.461,13.161z"/>
<path fill="#DC0A1E" d="M20.317,32.479C45.775,30.046,47.956,5.395,47.956,5.395C22.097,8.733,20.317,32.479,20.317,32.479z"/>
<path fill="#DC0A1E" d="M126.106,13.533c-0.561-0.561-0.842-1.229-0.842-2.005c0-0.775,0.281-1.443,0.842-2.005
	c0.561-0.561,1.229-0.842,2.005-0.842c0.775,0,1.443,0.281,2.004,0.842c0.561,0.561,0.842,1.23,0.842,2.005
	c0,0.776-0.28,1.443-0.842,2.005c-0.561,0.561-1.23,0.842-2.004,0.842C127.335,14.375,126.667,14.094,126.106,13.533z"/>
<g>
	<path fill="#1E1E1E" d="M71.702,17.462c-3.207,0-5.88,1.063-8.019,3.187c-2.139,2.125-3.207,4.725-3.207,7.798
		c0,3.074,1.069,5.673,3.207,7.798c2.138,2.125,4.811,3.187,8.019,3.187s5.88-1.062,8.019-3.187
		c2.138-2.125,3.207-4.724,3.207-7.798c0-3.073-1.069-5.673-3.207-7.798C77.581,18.524,74.909,17.462,71.702,17.462z M76.533,33.479
		c-1.27,1.296-2.88,1.945-4.831,1.945c-1.951,0-3.562-0.648-4.831-1.945c-1.27-1.296-1.904-2.973-1.904-5.032
		c0-2.058,0.635-3.735,1.904-5.032c1.269-1.296,2.88-1.944,4.831-1.944c1.951,0,3.561,0.648,4.831,1.944
		c1.269,1.297,1.904,2.974,1.904,5.032C78.437,30.505,77.802,32.183,76.533,33.479z"/>
	<path fill="#1E1E1E" d="M100.909,19.366c-1.591-1.269-3.642-1.904-6.154-1.904c-3.288,0-6.228,1.029-8.82,3.087l2.004,2.806
		c2.138-1.443,4.196-2.165,6.174-2.165c3.154,0,4.731,1.417,4.731,4.25v0.801H93.03c-2.646,0-4.744,0.521-6.294,1.564
		c-1.551,1.043-2.325,2.613-2.325,4.711c0,2.099,0.728,3.776,2.185,5.032c1.456,1.257,3.294,1.884,5.513,1.884
		c2.967,0,5.332-1.055,7.096-3.167v2.846h4.089V25.36C103.294,22.634,102.499,20.636,100.909,19.366z M98.804,31.173
		c0,1.363-0.535,2.446-1.604,3.247c-1.069,0.802-2.319,1.203-3.749,1.203c-1.431,0-2.546-0.274-3.348-0.822
		c-0.802-0.547-1.203-1.343-1.203-2.385c0-2.031,1.617-3.047,4.851-3.047h5.052V31.173z"/>
	<path fill="#1E1E1E" d="M120.573,28.247c-0.722-0.481-1.397-0.855-2.025-1.122c-0.628-0.267-1.277-0.508-1.945-0.722
		c-0.668-0.213-1.437-0.427-2.305-0.641c-0.869-0.214-1.544-0.441-2.025-0.682c-0.695-0.321-1.043-0.828-1.043-1.524
		c0-0.775,0.334-1.356,1.003-1.744c0.668-0.387,1.536-0.581,2.606-0.581c2.031,0,3.915,0.575,5.653,1.724l1.684-3.327
		c-2.192-1.443-4.517-2.165-6.976-2.165c-2.459,0-4.457,0.595-5.994,1.784c-1.537,1.19-2.305,2.773-2.305,4.751
		c0,2.806,2.218,4.811,6.655,6.014c0.106,0.027,0.267,0.08,0.481,0.16c2.833,0.856,4.25,1.818,4.25,2.887
		c0,0.722-0.294,1.317-0.882,1.784c-0.588,0.468-1.39,0.702-2.406,0.702c-2.325,0-4.731-0.935-7.217-2.807l-2.165,3.488
		c1.283,1.016,2.759,1.804,4.43,2.365c1.67,0.561,3.281,0.842,4.831,0.842c2.298,0,4.182-0.608,5.653-1.824
		c1.47-1.216,2.205-2.84,2.205-4.871C122.738,30.706,122.017,29.209,120.573,28.247z"/>
	<rect x="125.825" y="17.782" fill="#1E1E1E" width="4.49" height="21.329"/>
	<path fill="#1E1E1E" d="M147.835,28.247c-0.722-0.481-1.397-0.855-2.025-1.122c-0.628-0.267-1.277-0.508-1.945-0.722
		c-0.668-0.213-1.437-0.427-2.305-0.641c-0.869-0.214-1.544-0.441-2.025-0.682c-0.695-0.321-1.043-0.828-1.043-1.524
		c0-0.775,0.334-1.356,1.003-1.744c0.668-0.387,1.536-0.581,2.606-0.581c2.031,0,3.915,0.575,5.653,1.724l1.684-3.327
		c-2.192-1.443-4.517-2.165-6.976-2.165c-2.459,0-4.457,0.595-5.994,1.784c-1.537,1.19-2.305,2.773-2.305,4.751
		c0,2.806,2.218,4.811,6.655,6.014c0.106,0.027,0.267,0.08,0.481,0.16c2.833,0.856,4.25,1.818,4.25,2.887
		c0,0.722-0.294,1.317-0.882,1.784c-0.588,0.468-1.39,0.702-2.406,0.702c-2.325,0-4.731-0.935-7.217-2.807l-2.165,3.488
		c1.283,1.016,2.759,1.804,4.43,2.365c1.67,0.561,3.281,0.842,4.831,0.842c2.298,0,4.182-0.608,5.653-1.824
		c1.47-1.216,2.205-2.84,2.205-4.871C150,30.706,149.279,29.209,147.835,28.247z"/>
</g>
</svg>
