<?xml version="1.0" encoding="utf-8"?>
<!-- Generator: Adobe Illustrator 23.0.3, SVG Export Plug-In . SVG Version: 6.00 Build 0)  -->
<svg version="1.1" id="Layer_1" xmlns="http://www.w3.org/2000/svg" xmlns:xlink="http://www.w3.org/1999/xlink" x="0px" y="0px"
	 viewBox="0 0 535.41 126" style="enable-background:new 0 0 535.41 126;" xml:space="preserve">
<style type="text/css">
	.st0{fill:#8DC63F;}
	.st1{fill:#546670;}
	.st2{fill-rule:evenodd;clip-rule:evenodd;fill:#546670;}
</style>
<g>
	<g>
		<path class="st0" d="M172.15,46.21l-27.12-0.03c-4.61-0.02-5.5,1.09-6.6,5.07c-1.23,4.86-3.26,12.63-4.79,18.39
			c-1.19,4.43,0.76,6.33,4.96,6.31l25.93,0c4.29,0.05,6.2-0.83,7.68-6.58l4.31-16.62C177.51,49.01,176.99,46.19,172.15,46.21z
			 M168.58,52.57c-0.56,2.27-4.04,15.65-4.04,15.65c-0.8,3.22-1.49,4-3.94,3.99h-16.51c-2,0-3-0.55-2.28-3.53
			c0.77-2.96,3.26-12.37,4.16-15.81c0.76-2.59,1.45-2.94,3.16-2.94c2.35-0.02,14.83,0,17.81,0.01
			C168.4,49.95,169.16,50.37,168.58,52.57z"/>
		<path class="st0" d="M79.02,75.96l8.05-0.01c1.2-4.64,5.99-23.29,5.99-23.29c0.77-2.93-1.01-6.42-6.07-6.42l-23.16,0.01
			c-6.59-0.02-8.07,1.76-9.33,6.7c-1.13,4.33-4.67,18.07-5.97,23l7.97,0c1.31-4.77,5.12-19.67,5.56-21.32
			c0.87-3.42,0.83-4.7,3.26-4.69c3.59-0.02,18.19,0.02,18.19,0.02c1.11,0,2.2,0.34,1.57,2.64C84.67,54.35,79.94,72.46,79.02,75.96z"
			/>
		<path class="st0" d="M128.73,46.25l-23.14-0.04c-6.6,0.02-7.89,0.91-9.37,6.76c-0.13,0.49-5.03,19.26-5.03,19.26h-0.03v0.1
			l-1.8,6.87h0.03c-1.45,5.55-2.55,9.76-2.55,9.76L94.87,89l3.35-13.05h14.76l9.83,0.03c4.26-0.03,5.9,0.04,7.45-5.62l4.52-17.59
			C135.78,48.71,133.74,46.25,128.73,46.25z M126.81,52.76c-0.55,2.15-4.33,16.62-4.33,16.62c-0.59,2.21-1.11,2.95-3.36,2.82
			l-19.92,0.03c0,0,4.54-17.41,4.97-19.13c0.55-2.04,0.98-3.2,2.9-3.2c3.55,0.01,3.55,0.01,18.11,0.01
			C126.27,49.93,127.37,50.54,126.81,52.76z"/>
		<path class="st0" d="M215.71,46.2l-29.04,0c-3.78-0.01-5.46,0.67-6.2,3.73c-0.03,0.11-0.06,0.22-0.09,0.34h-0.01l-4.93,18.8h0.03
			c-0.83,3.28-0.36,6.86,4.62,6.87l31.83-0.02l0.96-3.71l-28.12-0.02c-1.45,0.02-2-0.37-1.66-1.77c0.44-1.61,1.22-4.64,1.66-6.38
			h25.77v-0.01h0.18c3.23-0.05,4.73-0.45,5.61-3.82c0.15-0.51,2.3-9.18,2.6-10.32C219.51,47.87,218.67,46.19,215.71,46.2z
			 M210.41,52.08c-0.36,1.41-0.99,3.82-1.43,5.58c-0.62,2.35-1.17,2.64-2.78,2.68h-20.48l1.46-5.55c0.23-0.86,0.47-1.73,0.68-2.54
			c0.55-2.36,1.58-2.32,3.15-2.31c1.55-0.04,18.07-0.03,18.07-0.03C210.42,49.92,210.76,50.67,210.41,52.08z"/>
		<path class="st0" d="M328.89,36.93l-8.4,6.23c2.6,0.01,3.34,0.76,2.91,2.21c-1.37,5.59-7.84,30.57-7.84,30.57l7.61-0.04
			l10.3-39.03L328.89,36.93z"/>
		<path class="st0" d="M312.41,36.94l-8.37,6.23c2.65,0.01,3.24,0.74,2.93,2.24c-1.46,5.54-7.9,30.52-7.9,30.52l7.64,0.01
			l10.3-39.04L312.41,36.94z"/>
		<path class="st0" d="M345.28,36.93l-8.32,6.23c2.62,0.01,3.32,0.74,2.94,2.21c-1.5,5.56-7.92,30.56-7.92,30.56l7.61-0.02
			l10.34-39.02L345.28,36.93z"/>
		<polygon class="st0" points="289.92,49.9 290.8,46.19 256.99,46.19 255.94,49.88 268.98,49.9 262.23,75.92 270.24,75.92 
			276.97,49.9 		"/>
		<path class="st0" d="M254.55,46.01l-6.29-0.02c-2.83,2.09-16.24,11.68-18.61,13.38c-1.74,1.23-1.08,3.03-0.46,3.74
			c3.3,3.83,11.07,12.67,11.07,12.67l12.41-0.05c0,0-9.92-10.97-13.61-15.23c-0.45-0.52-2.16-1.86-0.19-3.22L254.55,46.01z"/>
		<polygon class="st0" points="222.9,46.02 215.2,75.75 223.24,75.78 230.92,46.03 		"/>
	</g>
	<g>
		<path class="st1" d="M106.56,81.89h-4.06l-1.78,7.1h2.07l1.41-5.62h1.9c0.75,0,1.2,0.11,1.37,0.33c0.16,0.2,0.16,0.58,0.02,1.16
			l-1.04,4.13h2.07l1.03-4.1c0.24-0.95,0.17-1.65-0.21-2.14C108.88,82.17,108,81.89,106.56,81.89z"/>
		<path class="st1" d="M119.66,85.56c0.27-1.06,0.15-1.93-0.36-2.58c-0.6-0.77-1.7-1.16-3.26-1.16c-2.86,0-4.91,1.37-5.48,3.65
			c-0.25,0.98-0.13,1.79,0.35,2.4c0.61,0.78,1.76,1.18,3.4,1.18C117.11,89.06,119.11,87.75,119.66,85.56z M112.66,85.56
			c0.36-1.43,1.45-2.22,3.07-2.22c0.8,0,1.38,0.2,1.68,0.58c0.27,0.34,0.32,0.85,0.16,1.5c-0.35,1.41-1.4,2.12-3.1,2.12
			c-0.83,0-1.39-0.18-1.67-0.54C112.55,86.69,112.5,86.2,112.66,85.56z"/>
		<path class="st1" d="M122.67,81.89l-0.93,3.69c-0.3,1.18-1.12,1.83-1.36,2c-0.86,0.03-1.38,0.4-1.56,1.11l-0.42,1.68h1.9
			l0.28-1.12c0.02-0.09,0.06-0.26,0.57-0.26h6.03c0.27,0,0.34,0.05,0.31,0.09l-0.33,1.29h1.89l0.38-1.51
			c0.09-0.36,0.05-0.64-0.12-0.85c-0.16-0.21-0.42-0.33-0.82-0.38l1.44-5.74H122.67z M123.77,85.75l0.6-2.38h3.13l-1.08,4.29h-3.66
			C123.13,87.22,123.57,86.57,123.77,85.75z"/>
		<path class="st1" d="M139.1,82.64c-0.41-0.52-1.23-0.75-2.74-0.75h-4.5l-0.37,1.48h4.3c0.38,0,1.29,0,1.46,0.21
			c0.11,0.14,0.02,0.57-0.06,0.88l-2.77,0.04c-2.51,0-3.69,0.64-4.08,2.2c-0.14,0.58-0.07,1.06,0.22,1.43
			c0.45,0.58,1.41,0.87,2.91,0.87h4.66l1.09-4.35C139.4,83.92,139.51,83.17,139.1,82.64z M133.54,87.55c-0.84,0-1.12-0.14-1.21-0.25
			c-0.07-0.08-0.07-0.24-0.02-0.45c0.11-0.44,0.35-0.9,1.81-0.9h2.71l-0.41,1.61H133.54z"/>
		<path class="st1" d="M145.95,81.89h-4.34l-2.31,9.23h2.07l0.53-2.13h2.25c2.42,0,4.13-1.27,4.68-3.47
			c0.27-1.09,0.16-1.98-0.34-2.62C147.97,82.24,147.09,81.89,145.95,81.89z M144.85,83.37c0.98,0,1.58,0.16,1.84,0.5
			c0.22,0.28,0.24,0.74,0.07,1.41c-0.38,1.52-0.95,2.25-3.13,2.25h-1.37l1.04-4.15H144.85z"/>
		<path class="st1" d="M155.24,84.54l4.03-2.64h-2.93l-3.73,2.64h-0.21l0.66-2.64H151l-1.78,7.1h2.07l0.78-3.08h1.51
			c0.84,0,1.73,0.03,1.94,0.29c0.09,0.11,0.09,0.34,0,0.69l-0.53,2.1h2.07l0.48-1.94c0.18-0.7,0.09-1.28-0.25-1.72
			C156.91,84.85,156.2,84.57,155.24,84.54z"/>
		<polygon class="st1" points="161.14,86.42 162.28,81.89 160.21,81.89 158.43,88.99 160.44,88.99 165.29,84.5 164.16,88.99 
			166.23,88.99 168.01,81.89 166,81.89 		"/>
		<path class="st1" d="M181.09,87.64l1.44-5.74h-7.27l-0.93,3.69c-0.3,1.18-1.12,1.83-1.36,2c-0.86,0.03-1.38,0.4-1.56,1.11
			L171,90.38h1.89l0.29-1.12c0.02-0.09,0.06-0.26,0.57-0.26h6.03c0.27,0,0.33,0.05,0.31,0.09l-0.33,1.29h1.89l0.38-1.51
			c0.09-0.36,0.05-0.64-0.12-0.85C181.75,87.81,181.49,87.68,181.09,87.64z M176.37,85.75l0.6-2.38h3.13l-1.08,4.29h-3.66
			C175.73,87.22,176.16,86.57,176.37,85.75z"/>
		<path class="st1" d="M189.07,81.89c-2.53,0-3.77,0.82-4.27,2.83l-0.46,1.85c-0.17,0.66-0.35,0.9-1.08,0.95L183,87.54L182.63,89
			l0.45-0.01c2.42-0.06,3.08-1.47,3.39-2.69l0.32-1.28c0.32-1.27,0.87-1.66,2.35-1.66h1.29l-1.41,5.62h2.07l1.78-7.1H189.07z"/>
		<path class="st1" d="M193.29,84.3c-0.13,0.53-0.07,1.01,0.17,1.41c0.12,0.19,0.27,0.34,0.43,0.46c-0.41,0.21-0.85,0.54-0.98,1.04
			l-0.45,1.79h2l0.41-1.62c0.12-0.49,0.5-0.58,1.5-0.58h2.59l-0.55,2.19h2.07l1.78-7.1h-4.83C194.82,81.89,193.57,83.19,193.29,84.3
			z M196.55,85.37c-0.59,0-1.04-0.14-1.23-0.39c-0.1-0.13-0.13-0.29-0.08-0.48c0.18-0.72,0.93-1.15,1.99-1.15h2.59l-0.51,2.02
			H196.55z"/>
		<path class="st1" d="M214.35,81.59l0.37-1.47h-2.36c-3.73,0-5.87,1.58-6.72,4.98l-0.13,0.51c-0.23,0.92-0.1,1.73,0.38,2.35
			c0.59,0.75,1.63,1.15,3.02,1.15c2.55,0,4.43-1.21,4.92-3.16c0.24-0.94,0.12-1.71-0.34-2.3c-0.56-0.72-1.61-1.09-3.04-1.09
			c-0.79,0-1.5,0.17-2.15,0.52c0.74-0.97,2.07-1.49,3.86-1.49H214.35z M211.79,85.78c-0.28,1.12-1.28,1.79-2.68,1.79
			c-0.67,0-1.18-0.18-1.44-0.51c-0.21-0.27-0.26-0.65-0.14-1.12c0.28-1.13,1.29-1.84,2.62-1.84c0.69,0,1.21,0.19,1.49,0.54
			C211.86,84.93,211.91,85.31,211.79,85.78z"/>
		<polygon class="st1" points="221.95,81.89 217.1,86.42 218.23,81.89 216.16,81.89 214.38,88.99 216.39,88.99 221.24,84.49 
			220.11,88.99 222.18,88.99 223.96,81.89 		"/>
		<path class="st1" d="M228.76,81.89h-3.55l-0.37,1.46h3.72c0.92,0,1.18,0.16,1.25,0.25c0.02,0.02,0.07,0.09,0.02,0.32
			c-0.12,0.49-0.48,0.57-1.5,0.57h-2.24l-0.36,1.43h2.42c0.65,0,1.12,0.12,1.29,0.34c0.05,0.06,0.11,0.17,0.05,0.39
			c-0.11,0.43-0.42,0.88-1.92,0.88h-4.13l-0.36,1.45h4.3c3.19,0,3.9-1.49,4.06-2.13c0.19-0.76-0.24-1.34-0.73-1.71
			c0.45-0.21,0.95-0.55,1.07-1.06c0.15-0.59,0.09-1.05-0.19-1.41C231.17,82.15,230.27,81.89,228.76,81.89z"/>
		<polygon class="st1" points="239.05,84.43 235.4,84.43 236.03,81.89 233.96,81.89 232.18,88.99 234.25,88.99 235.03,85.91 
			238.68,85.91 237.91,88.99 239.98,88.99 241.76,81.89 239.69,81.89 		"/>
		<path class="st1" d="M247.18,81.89c-2.65,0-4.49,1.31-5.07,3.6c-0.27,1.08-0.18,1.89,0.29,2.48c0.54,0.69,1.54,1.02,3.07,1.02
			h3.55l0.37-1.47h-3.26c-1.07,0-1.7-0.15-1.94-0.46c-0.16-0.2-0.19-0.51-0.1-0.97h6.29l0.11-0.43c0.31-1.22,0.22-2.12-0.27-2.74
			C249.66,82.23,248.67,81.89,247.18,81.89z M244.5,84.61c0.51-0.91,1.21-1.24,2.48-1.24c0.75,0,1.23,0.13,1.44,0.4
			c0.14,0.18,0.18,0.46,0.12,0.84H244.5z"/>
		<path class="st1" d="M253.46,87.06c-0.22-0.28-0.23-0.76-0.04-1.53c0.4-1.58,1.22-2.16,3.04-2.16h2.83l0.37-1.48h-3
			c-2.83,0-4.78,1.31-5.35,3.59c-0.26,1.03-0.16,1.82,0.3,2.41c0.58,0.75,1.71,1.11,3.44,1.11h2.83l0.37-1.47h-3
			C254.29,87.52,253.71,87.37,253.46,87.06z"/>
		<path class="st1" d="M267.87,82.64c-0.41-0.52-1.22-0.75-2.74-0.75h-4.5l-0.37,1.48h4.3c0.38,0,1.29,0,1.46,0.21
			c0.11,0.14,0.02,0.57-0.06,0.88l-2.77,0.04c-2.51,0-3.69,0.64-4.08,2.2c-0.14,0.57-0.07,1.06,0.22,1.43
			c0.46,0.58,1.41,0.87,2.91,0.87h4.66l1.09-4.35C268.17,83.92,268.28,83.17,267.87,82.64z M262.3,87.55
			c-0.84,0-1.12-0.14-1.21-0.25c-0.06-0.08-0.07-0.24-0.02-0.45c0.14-0.56,0.49-0.91,1.81-0.91h2.71l-0.4,1.61H262.3z"/>
	</g>
</g>
<g>
	<path class="st2" d="M357.99,36.03c-0.02-0.37-0.05-0.79-0.53-0.89v-0.02c0.55-0.22,0.62-0.6,0.62-0.85c0-0.96-0.83-1.07-1.22-1.07
		h-1.65v3.71h0.69v-1.54h0.56c0.78,0,0.81,0.35,0.82,0.69c0.02,0.62,0.01,0.7,0.14,0.85h0.71C357.99,36.71,358.02,36.6,357.99,36.03
		z M356.71,34.86h-0.8V33.7h0.72c0.45,0,0.75,0.12,0.75,0.56C357.39,34.53,357.28,34.86,356.71,34.86z"/>
	<g>
		<path class="st1" d="M356.46,38.78c-2.06-0.03-3.71-1.73-3.68-3.79c0.03-2.06,1.73-3.71,3.79-3.68c2.06,0.03,3.71,1.73,3.68,3.79
			C360.22,37.16,358.52,38.81,356.46,38.78z M356.56,31.9c-1.73-0.03-3.16,1.36-3.18,3.09c-0.03,1.73,1.36,3.16,3.09,3.18
			c1.73,0.03,3.16-1.36,3.18-3.09C359.68,33.36,358.29,31.93,356.56,31.9z"/>
	</g>
</g>
<path class="st1" d="M406.65,50.69c0,4.69-3.8,8.49-8.49,8.49s-8.49-3.8-8.49-8.49s3.8-8.49,8.49-8.49S406.65,46,406.65,50.69z"/>
<path class="st0" d="M406.65,71.51c0,4.69-3.8,8.49-8.49,8.49s-8.49-3.8-8.49-8.49s3.8-8.49,8.49-8.49S406.65,66.82,406.65,71.51z"
	/>
<g>
	<path d="M415.73,67.45c0.43-0.07,0.99-0.13,1.7-0.13c0.88,0,1.51,0.2,1.92,0.57c0.37,0.32,0.6,0.82,0.6,1.43
		c0,0.62-0.18,1.11-0.53,1.46c-0.48,0.5-1.23,0.75-2.09,0.75c-0.26,0-0.51-0.01-0.71-0.06v2.74h-0.88V67.45z M416.62,70.75
		c0.19,0.05,0.44,0.07,0.73,0.07c1.07,0,1.72-0.53,1.72-1.45c0-0.91-0.65-1.35-1.62-1.35c-0.39,0-0.68,0.03-0.83,0.07V70.75z"/>
	<path d="M421.39,72.06l-0.71,2.15h-0.91l2.34-6.85h1.06l2.34,6.85h-0.95l-0.73-2.15H421.39z M423.65,71.37l-0.68-1.97
		c-0.15-0.45-0.25-0.85-0.36-1.25h-0.02c-0.1,0.4-0.2,0.82-0.35,1.24l-0.67,1.98H423.65z"/>
	<path d="M426.5,74.21v-6.85h0.98l2.18,3.47c0.5,0.8,0.9,1.52,1.22,2.22l0.03-0.01c-0.08-0.91-0.1-1.75-0.1-2.81v-2.87h0.83v6.85
		h-0.89l-2.18-3.47c-0.48-0.76-0.93-1.54-1.27-2.29l-0.03,0.01c0.05,0.87,0.06,1.69,0.06,2.83v2.93H426.5z"/>
	<path d="M434.49,68.12h-2.08v-0.75h5.07v0.75h-2.09v6.1h-0.89V68.12z"/>
	<path d="M443.82,70.72c0,2.35-1.43,3.61-3.18,3.61c-1.82,0-3.08-1.41-3.08-3.48c0-2.18,1.34-3.6,3.17-3.6
		C442.61,67.24,443.82,68.68,443.82,70.72z M438.49,70.82c0,1.47,0.79,2.79,2.2,2.79c1.4,0,2.2-1.29,2.2-2.85
		c0-1.37-0.71-2.79-2.19-2.79C439.23,67.96,438.49,69.33,438.49,70.82z"/>
	<path d="M444.97,74.21v-6.85h0.98l2.18,3.47c0.5,0.8,0.9,1.52,1.22,2.22l0.03-0.01c-0.08-0.91-0.1-1.75-0.1-2.81v-2.87h0.83v6.85
		h-0.89l-2.17-3.47c-0.48-0.76-0.94-1.54-1.27-2.29l-0.03,0.01c0.05,0.87,0.06,1.69,0.06,2.83v2.93H444.97z"/>
	<path d="M455.19,71h-2.65v2.47h2.97v0.74h-3.86v-6.85h3.71v0.74h-2.81v2.16h2.65V71z"/>
	<path d="M458.71,73.2c0.25,0.15,0.83,0.41,1.46,0.41c1.14,0,1.5-0.72,1.49-1.28c-0.01-0.92-0.84-1.32-1.71-1.32h-0.5v-0.67h0.5
		c0.65,0,1.47-0.34,1.47-1.12c0-0.53-0.33-1-1.16-1c-0.53,0-1.04,0.23-1.32,0.44L458.71,68c0.36-0.25,1.03-0.51,1.74-0.51
		c1.3,0,1.89,0.77,1.89,1.57c0,0.69-0.42,1.27-1.22,1.57v0.02c0.81,0.15,1.46,0.76,1.47,1.69c0,1.06-0.83,1.98-2.41,1.98
		c-0.74,0-1.39-0.23-1.72-0.45L458.71,73.2z"/>
	<path d="M467.99,67.61v0.59l-2.88,6.02h-0.93l2.87-5.84v-0.02h-3.23v-0.74H467.99z"/>
	<path d="M472.69,68.24c-0.18-0.01-0.42,0.01-0.67,0.05c-1.41,0.22-2.14,1.24-2.3,2.34h0.02c0.31-0.43,0.87-0.77,1.61-0.77
		c1.17,0,1.99,0.85,1.99,2.13c0,1.22-0.82,2.34-2.21,2.34c-1.4,0-2.33-1.1-2.33-2.81c0-1.3,0.46-2.33,1.12-2.98
		c0.55-0.54,1.28-0.88,2.12-0.98c0.26-0.04,0.49-0.05,0.65-0.05V68.24z M472.43,72.05c0-0.95-0.54-1.51-1.36-1.51
		c-0.54,0-1.05,0.32-1.29,0.81c-0.05,0.1-0.09,0.22-0.09,0.39c0.01,1.09,0.52,1.9,1.46,1.9C471.91,73.63,472.43,72.99,472.43,72.05z
		"/>
	<path d="M481.38,74c-0.32,0.16-0.98,0.32-1.81,0.32c-1.93,0-3.38-1.22-3.38-3.47c0-2.15,1.45-3.6,3.58-3.6
		c0.84,0,1.39,0.18,1.62,0.3l-0.22,0.72c-0.33-0.16-0.8-0.29-1.37-0.29c-1.61,0-2.67,1.03-2.67,2.82c0,1.69,0.96,2.75,2.62,2.75
		c0.55,0,1.1-0.11,1.45-0.28L481.38,74z"/>
</g>
<g>
	<path d="M415.73,46.3c0.43-0.07,0.99-0.13,1.7-0.13c0.88,0,1.51,0.2,1.92,0.57c0.37,0.33,0.6,0.82,0.6,1.43
		c0,0.62-0.18,1.11-0.53,1.46c-0.48,0.5-1.23,0.75-2.09,0.75c-0.26,0-0.51-0.01-0.71-0.06v2.74h-0.88V46.3z M416.62,49.61
		c0.19,0.05,0.44,0.07,0.73,0.07c1.07,0,1.72-0.53,1.72-1.45c0-0.91-0.65-1.35-1.62-1.35c-0.39,0-0.68,0.03-0.83,0.07V49.61z"/>
	<path d="M421.39,50.92l-0.71,2.15h-0.91l2.34-6.85h1.06l2.34,6.85h-0.95l-0.73-2.15H421.39z M423.65,50.23l-0.68-1.97
		c-0.15-0.45-0.25-0.85-0.36-1.25h-0.02c-0.1,0.4-0.2,0.82-0.35,1.24l-0.67,1.98H423.65z"/>
	<path d="M426.5,53.07v-6.85h0.98l2.18,3.46c0.5,0.8,0.9,1.53,1.22,2.23l0.03-0.01c-0.08-0.91-0.1-1.75-0.1-2.81v-2.87h0.83v6.85
		h-0.89l-2.18-3.48c-0.48-0.76-0.93-1.54-1.27-2.29l-0.03,0.01c0.05,0.86,0.06,1.69,0.06,2.82v2.93H426.5z"/>
	<path d="M434.49,46.98h-2.08v-0.75h5.07v0.75h-2.09v6.1h-0.89V46.98z"/>
	<path d="M443.82,49.58c0,2.35-1.43,3.61-3.18,3.61c-1.82,0-3.08-1.41-3.08-3.49c0-2.17,1.34-3.6,3.17-3.6
		C442.61,46.1,443.82,47.53,443.82,49.58z M438.49,49.68c0,1.47,0.79,2.79,2.2,2.79c1.4,0,2.2-1.29,2.2-2.85
		c0-1.37-0.71-2.79-2.19-2.79C439.23,46.82,438.49,48.18,438.49,49.68z"/>
	<path d="M444.97,53.07v-6.85h0.98l2.18,3.46c0.5,0.8,0.9,1.53,1.22,2.23l0.03-0.01c-0.08-0.91-0.1-1.75-0.1-2.81v-2.87h0.83v6.85
		h-0.89l-2.17-3.48c-0.48-0.76-0.94-1.54-1.27-2.29l-0.03,0.01c0.05,0.86,0.06,1.69,0.06,2.82v2.93H444.97z"/>
	<path d="M455.19,49.86h-2.65v2.47h2.97v0.74h-3.86v-6.85h3.71v0.74h-2.81v2.16h2.65V49.86z"/>
	<path d="M461.26,53.07v-1.81h-3.07v-0.58l2.95-4.22h0.97v4.11h0.92v0.69h-0.92v1.81H461.26z M461.26,50.57v-2.21
		c0-0.35,0.01-0.69,0.03-1.04h-0.03c-0.2,0.39-0.37,0.67-0.55,0.97l-1.62,2.25v0.02H461.26z"/>
	<path d="M463.92,52.06c0.25,0.15,0.83,0.41,1.46,0.41c1.14,0,1.5-0.72,1.49-1.28c-0.01-0.93-0.84-1.32-1.71-1.32h-0.5v-0.67h0.5
		c0.65,0,1.47-0.34,1.47-1.12c0-0.53-0.34-1-1.16-1c-0.53,0-1.04,0.23-1.32,0.44l-0.24-0.65c0.36-0.25,1.03-0.51,1.74-0.51
		c1.3,0,1.89,0.77,1.89,1.58c0,0.69-0.42,1.27-1.22,1.56v0.02c0.81,0.15,1.46,0.76,1.47,1.69c0,1.06-0.83,1.98-2.41,1.98
		c-0.74,0-1.39-0.23-1.72-0.45L463.92,52.06z"/>
	<path d="M470.86,47.3h-0.02l-1.15,0.62l-0.17-0.68l1.44-0.77h0.76v6.61h-0.86V47.3z"/>
	<path d="M481.38,52.86c-0.32,0.16-0.98,0.33-1.81,0.33c-1.93,0-3.38-1.22-3.38-3.47c0-2.16,1.45-3.6,3.58-3.6
		c0.84,0,1.39,0.18,1.62,0.3l-0.22,0.72c-0.33-0.16-0.8-0.29-1.37-0.29c-1.61,0-2.67,1.03-2.67,2.83c0,1.69,0.96,2.75,2.62,2.75
		c0.55,0,1.1-0.11,1.45-0.29L481.38,52.86z"/>
</g>
</svg>
